<?xml version="1.0" standalone="no"?>
<!DOCTYPE svg PUBLIC "-//W3C//DTD SVG 20010904//EN"
 "http://www.w3.org/TR/2001/REC-SVG-20010904/DTD/svg10.dtd">
<svg version="1.0" xmlns="http://www.w3.org/2000/svg"
 width="700.000000pt" height="700.000000pt" viewBox="0 0 700.000000 700.000000"
 preserveAspectRatio="xMidYMid meet">
<metadata>
Created by potrace 1.14, written by Peter Selinger 2001-2017
</metadata>
<g transform="translate(0.000000,700.000000) scale(0.100000,-0.100000)"
fill="#000000" stroke="none">
<path d="M1929 6996 c-2 -2 -30 -6 -62 -10 -70 -7 -188 -26 -196 -30 -3 -2
-24 -7 -45 -10 -22 -4 -59 -13 -83 -21 -24 -8 -48 -15 -54 -15 -5 0 -54 -16
-107 -36 -191 -70 -392 -179 -547 -297 -113 -86 -129 -100 -238 -212 -270
-274 -467 -637 -545 -1005 -21 -97 -25 -122 -41 -245 -10 -75 -8 -3222 1
-3265 3 -14 9 -45 12 -70 75 -523 376 -1028 811 -1356 227 -171 488 -295 765
-362 121 -30 147 -34 295 -52 39 -4 763 -8 1610 -8 1457 -1 1547 0 1675 18
186 26 388 79 515 134 340 148 614 352 830 616 70 86 194 266 196 285 0 6 6
17 14 25 55 64 202 455 221 590 2 19 7 46 10 60 30 126 32 244 32 1770 0 1541
-2 1636 -33 1780 -3 14 -8 39 -11 55 -12 71 -67 257 -93 320 -5 11 -17 40 -27
65 -34 85 -126 255 -187 345 -291 433 -717 737 -1216 866 -264 68 -216 66
-1942 68 -856 0 -1558 -1 -1560 -3z m3181 -709 c14 -4 43 -10 65 -13 66 -10
267 -79 354 -123 176 -88 334 -215 456 -367 22 -27 42 -51 45 -54 3 -3 25 -35
47 -71 120 -192 188 -386 213 -604 12 -113 10 -3117 -3 -3170 -4 -16 -12 -52
-18 -80 -74 -347 -297 -674 -594 -872 -163 -109 -388 -194 -590 -222 -88 -12
-3089 -13 -3160 -1 -101 17 -120 21 -137 26 -9 3 -25 7 -36 9 -57 11 -169 52
-258 94 -187 89 -333 203 -471 366 -49 58 -133 178 -133 190 0 3 -10 22 -23
43 -21 33 -66 137 -96 217 -6 17 -23 80 -38 140 l-27 110 -3 1555 c-2 1601 -2
1608 36 1770 53 229 168 440 350 642 29 32 175 154 226 189 165 113 411 206
592 225 32 4 60 8 62 10 8 8 3116 -2 3141 -9z"/>
</g>
</svg>
